<?xml version="1.0" encoding="utf-8"?>
<!-- Generator: Adobe Illustrator 24.0.1, SVG Export Plug-In . SVG Version: 6.00 Build 0)  -->
<svg version="1.1" id="Layer_1" xmlns="http://www.w3.org/2000/svg" xmlns:xlink="http://www.w3.org/1999/xlink" x="0px" y="0px"
	 viewBox="0 0 1000 1000" style="enable-background:new 0 0 1000 1000;" xml:space="preserve">
<style type="text/css">
	.st0{fill-rule:evenodd;clip-rule:evenodd;fill:#FBBB31;}
</style>
<path class="st0" d="M695.3,944.37H302.71c-127.3,0-230.86-101.89-230.86-227.12V313.74c0-117.91,91.82-217.23,208.81-228.44v28.91
	C178.28,125.09,100.67,210.25,100.67,314v207.25c0,217.57,177.13,394.57,398.6,394.57h196.56c113.19,0,204.23-90.41,204.23-201.55
	V314c0-106.73-83.96-193.8-190.86-200.54v10.61c0,7.85-6.08,14.21-13.94,14.21c-3.98,0-7.58-1.64-10.16-4.28
	c0.04,0,0.08,0.01,0.13,0.01h0.39c7.85,0,14.22-6.37,14.22-14.22V69.6c0-6.04-3.77-11.18-9.07-13.24c1.41-0.47,2.92-0.73,4.49-0.73
	c7.85,0,13.94,6.38,13.94,14.24v14.8c120.99,7.26,218.94,108.44,218.94,229.08v403.52C928.15,842.48,822.59,944.37,695.3,944.37z
	 M671.01,113.02H515.98v11.03c0,7.85-6.37,14.22-14.22,14.22c-3.99,0-7.59-1.65-10.17-4.3c0.14,0,0.28,0.02,0.42,0.02h0.39
	c7.85,0,14.22-6.37,14.22-14.22V69.6c0-6.09-3.83-11.27-9.21-13.3c1.37-0.44,2.83-0.68,4.35-0.68c7.85,0,14.22,6.37,14.22,14.22
	v14.38h155.03V113.02z M434.47,286.57c17.86,0,32.33,14.48,32.33,32.33c0,17.86-14.48,32.33-32.33,32.33
	c-17.86,0-32.33-14.48-32.33-32.33C402.14,301.05,416.61,286.57,434.47,286.57z M531.14,318.91c0-17.86,14.48-32.33,32.33-32.33
	c17.86,0,32.33,14.48,32.33,32.33c0,17.86-14.48,32.33-32.33,32.33C545.62,351.24,531.14,336.76,531.14,318.91z M724.81,318.91
	c0,17.86-14.48,32.33-32.33,32.33c-17.86,0-32.33-14.48-32.33-32.33c0-17.86,14.48-32.33,32.33-32.33
	C710.34,286.57,724.81,301.05,724.81,318.91z M724.81,576.92c0,17.86-14.48,32.33-32.33,32.33c-17.86,0-32.33-14.47-32.33-32.33
	c0-17.86,14.48-32.33,32.33-32.33C710.34,544.58,724.81,559.06,724.81,576.92z M563.47,673.59c17.86,0,32.33,14.48,32.33,32.33
	c0,17.86-14.48,32.33-32.33,32.33c-17.86,0-32.33-14.47-32.33-32.33C531.14,688.06,545.62,673.59,563.47,673.59z M563.47,544.58
	c17.86,0,32.33,14.47,32.33,32.33c0,17.86-14.48,32.33-32.33,32.33c-17.86,0-32.33-14.47-32.33-32.33
	C531.14,559.06,545.62,544.58,563.47,544.58z M434.47,415.58c0.95,0,1.88,0.05,2.81,0.13v-0.13h126.11c0.03,0,0.05,0,0.08,0
	c0.03,0,0.05,0,0.08,0h128.67v0c0.08,0,0.17-0.01,0.25-0.01c17.86,0,32.33,14.48,32.33,32.33c0,17.86-14.48,32.33-32.33,32.33
	c-0.08,0-0.17-0.01-0.25-0.01v0H563.56c-0.03,0-0.06,0-0.09,0c-0.03,0-0.06,0-0.09,0H437.28v-0.13c-0.93,0.08-1.86,0.13-2.81,0.13
	c-17.86,0-32.33-14.48-32.33-32.33C402.14,430.06,416.61,415.58,434.47,415.58z M434.47,673.59c17.86,0,32.33,14.48,32.33,32.33
	c0,17.86-14.48,32.33-32.33,32.33c-17.86,0-32.33-14.47-32.33-32.33C402.14,688.06,416.61,673.59,434.47,673.59z M434.47,544.58
	c17.86,0,32.33,14.47,32.33,32.33c0,17.86-14.48,32.33-32.33,32.33c-17.86,0-32.33-14.47-32.33-32.33
	C402.14,559.06,416.61,544.58,434.47,544.58z M318.85,124.07c0,7.84-6.36,14.2-14.2,14.2c-3.99,0-7.58-1.65-10.16-4.29
	c0.13,0,0.27,0.02,0.4,0.02h0.39c7.85,0,14.22-6.37,14.22-14.22V69.6c0-6.09-3.83-11.26-9.2-13.29c1.37-0.44,2.83-0.69,4.35-0.69
	c7.84,0,14.2,6.36,14.2,14.2v14.4h158.94v28.79H318.85V124.07z M305.46,286.57c17.86,0,32.33,14.48,32.33,32.33
	c0,17.86-14.48,32.33-32.33,32.33c-17.86,0-32.33-14.48-32.33-32.33C273.13,301.05,287.61,286.57,305.46,286.57z M305.46,415.58
	c17.86,0,32.33,14.48,32.33,32.33c0,17.86-14.48,32.33-32.33,32.33c-17.86,0-32.33-14.48-32.33-32.33
	C273.13,430.06,287.61,415.58,305.46,415.58z M305.46,673.59c17.86,0,32.33,14.48,32.33,32.33c0,17.86-14.48,32.33-32.33,32.33
	c-17.86,0-32.33-14.47-32.33-32.33C273.13,688.06,287.61,673.59,305.46,673.59z M305.46,544.58c17.86,0,32.33,14.47,32.33,32.33
	c0,17.86-14.48,32.33-32.33,32.33c-17.86,0-32.33-14.47-32.33-32.33C273.13,559.06,287.61,544.58,305.46,544.58z"/>
</svg>
