<?xml version="1.0" encoding="UTF-8"?>
<svg data-bbox="0 1 82.281 52.109" viewBox="0 0 32 40" xmlns="http://www.w3.org/2000/svg" data-type="ugc">
    <g>
        <path d="M14 28.5V26H1v2.5A2.5 2.5 0 0 0 3.5 31h11.56A3.44 3.44 0 0 1 14 28.5zm-4.5 1a1 1 0 1 1 1-1 1 1 0 0 1-1 1z"/>
        <path d="M28.5 1H27v1.5a.5.5 0 0 1-.5.5h-7a.5.5 0 0 1-.5-.5V1h-1.5A2.5 2.5 0 0 0 15 3.5v25a2.5 2.5 0 0 0 2.5 2.5h11a2.5 2.5 0 0 0 2.5-2.5v-25A2.5 2.5 0 0 0 28.5 1zm-4 28h-3a.5.5 0 0 1 0-1h3a.5.5 0 0 1 0 1z"/>
        <path d="M3.5 1A2.5 2.5 0 0 0 1 3.5V25h13V3.5A3.44 3.44 0 0 1 15.06 1zm7 3h-3a.5.5 0 0 1 0-1h3a.5.5 0 0 1 0 1z"/>
        <text font-family="'Helvetica Neue', Helvetica, Arial-Unicode, Arial, Sans-serif" font-weight="bold" font-size="5" fill="#000000" y="47">
            Created by Nur Asyrof Muhammad
        </text>
        <text font-family="'Helvetica Neue', Helvetica, Arial-Unicode, Arial, Sans-serif" font-weight="bold" font-size="5" fill="#000000" y="52">
            from the Noun Project
        </text>
    </g>
</svg>
