<?xml version="1.0" encoding="UTF-8"?>
<svg data-bbox="1 1 188.48 62.138" xmlns="http://www.w3.org/2000/svg" viewBox="0 0 196 64" height="64" width="196" data-type="color">
    <g fill-rule="evenodd">
        <path fill-rule="nonzero" fill="#5848FF" d="M110.064 40V29.992h3.312L120.432 40h5.904l-7.776-10.548c1.608-.552 2.886-1.47 3.834-2.754s1.422-2.814 1.422-4.59c0-1.56-.366-2.928-1.098-4.104-.732-1.176-1.752-2.094-3.06-2.754-1.308-.66-2.826-.99-4.554-.99h-9.9V40h4.86zm5.04-14.112h-5.04v-7.524h5.04c1.176 0 2.106.336 2.79 1.008.684.672 1.026 1.584 1.026 2.736 0 1.176-.342 2.1-1.026 2.772-.684.672-1.614 1.008-2.79 1.008zM135.372 40V22l11.376 18h5.076V14.26h-4.752v18l-11.376-18h-5.076V40h4.752zm32.868.576c3.24 0 5.784-.942 7.632-2.826 1.848-1.884 2.772-4.518 2.772-7.902V14.26h-4.824v15.588c0 1.968-.492 3.528-1.476 4.68-.984 1.152-2.352 1.728-4.104 1.728-1.752 0-3.12-.576-4.104-1.728-.984-1.152-1.476-2.712-1.476-4.68V14.26h-4.86v15.588c0 3.384.924 6.018 2.772 7.902 1.848 1.884 4.404 2.826 7.668 2.826zM189.48 40V14.26h-4.86V40h4.86z" data-color="1"/>
        <path opacity=".6" d="M1.717 14.26l43.908 25.323L32.536 59.2 3.676 42.566a5.346 5.346 0 0 1-2.67-4.394L1 37.934v-21c0-.955.255-1.874.717-2.674z" fill="#5848FF" data-color="1"/>
        <path opacity=".2" d="M27.135 1.718l31.573 18.258L45.62 39.591 1.642 14.174c.462-.8 1.13-1.48 1.958-1.958l18.186-10.5a5.346 5.346 0 0 1 5.35.002z" fill="#5848FF" data-color="1"/>
        <path opacity=".601" d="M79.805 14.26L35.897 39.583 48.986 59.2l28.86-16.634a5.346 5.346 0 0 0 2.67-4.394l.006-.238v-21c0-.955-.255-1.874-.717-2.674z" fill="#5848FF" data-color="1"/>
        <path opacity=".2" d="M54.387 1.718L22.814 19.976l13.088 19.615L79.88 14.174a5.345 5.345 0 0 0-1.958-1.958l-18.186-10.5a5.346 5.346 0 0 0-5.35.002z" fill="#5848FF" data-color="1"/>
        <path d="M64.281 50.377L43.42 62.421a5.346 5.346 0 0 1-5.346 0L17.212 50.377V23.201L40.747 9.614 64.281 23.2v27.177z" fill="#5848FF" data-color="1"/>
    </g>
</svg>
