<svg width="24" height="24" viewBox="0 0 24 24" fill="none" xmlns="http://www.w3.org/2000/svg">
<path d="M12 2.25C17.3848 2.25 21.75 6.61522 21.75 12C21.75 17.3848 17.3848 21.75 12 21.75C6.61522 21.75 2.25 17.3848 2.25 12C2.25 6.61522 6.61522 2.25 12 2.25ZM12.1504 8.25C11.7362 8.25 11.4004 8.58579 11.4004 9V11.25H9.15039C8.73618 11.25 8.40039 11.5858 8.40039 12C8.40039 12.4142 8.73618 12.75 9.15039 12.75H11.4004V15C11.4004 15.4142 11.7362 15.75 12.1504 15.75C12.5646 15.75 12.9004 15.4142 12.9004 15V12.75H15.1504C15.5646 12.75 15.9004 12.4142 15.9004 12C15.9004 11.5858 15.5646 11.25 15.1504 11.25H12.9004V9C12.9004 8.58579 12.5646 8.25 12.1504 8.25Z" fill="#20303C"/>
</svg>
